<?xml version="1.0" encoding="UTF-8" standalone="no"?>
<!-- Created with Inkscape (http://www.inkscape.org/) -->

<svg
   width="264.58334mm"
   height="264.58334mm"
   viewBox="0 0 264.58334 264.58334"
   version="1.1"
   id="svg5"
   xml:space="preserve"
   sodipodi:docname="shimmy.svg"
   inkscape:version="1.2.1 (9c6d41e410, 2022-07-14)"
   inkscape:export-filename="shimmy.png"
   inkscape:export-xdpi="9.5999994"
   inkscape:export-ydpi="9.5999994"
   xmlns:inkscape="http://www.inkscape.org/namespaces/inkscape"
   xmlns:sodipodi="http://sodipodi.sourceforge.net/DTD/sodipodi-0.dtd"
   xmlns="http://www.w3.org/2000/svg"
   xmlns:svg="http://www.w3.org/2000/svg"><sodipodi:namedview
     id="namedview7"
     pagecolor="#ffffff"
     bordercolor="#666666"
     borderopacity="1.0"
     inkscape:showpageshadow="2"
     inkscape:pageopacity="0.0"
     inkscape:pagecheckerboard="0"
     inkscape:deskcolor="#d1d1d1"
     inkscape:document-units="mm"
     showgrid="false"
     showguides="true"
     inkscape:zoom="0.54660447"
     inkscape:cx="610.1304"
     inkscape:cy="504.9355"
     inkscape:window-width="1304"
     inkscape:window-height="745"
     inkscape:window-x="54"
     inkscape:window-y="-8"
     inkscape:window-maximized="1"
     inkscape:current-layer="layer2"><sodipodi:guide
       position="160.99687,12.046513"
       orientation="0,-1"
       id="guide3139"
       inkscape:locked="false" /><sodipodi:guide
       position="103.89553,158.47419"
       orientation="-0.11275788,-0.99362249"
       id="guide3141"
       inkscape:locked="false" /><sodipodi:guide
       position="146.55226,153.63344"
       orientation="0.85751855,-0.51445305"
       id="guide8462"
       inkscape:locked="false" /></sodipodi:namedview><defs
     id="defs2" /><g
     inkscape:label="Layer 1"
     inkscape:groupmode="layer"
     id="layer1"
     transform="translate(26.579807,-14.949854)" /><g
     inkscape:groupmode="layer"
     id="layer2"
     inkscape:label="Layer 2"><g
       id="g8522"
       transform="matrix(1.0999218,0,0,1.0999218,-12.196684,-15.37008)"
       style="stroke-width:3.60821106;stroke-dasharray:none"><path
         style="fill:none;stroke:#000000;stroke-width:3.60821106;stroke-linecap:round;stroke-linejoin:round;stroke-dasharray:none;paint-order:stroke fill markers"
         d="m 148.62846,70.155496 c -1.75247,2.304067 -2.34122,4.218637 -2.27879,7.297688"
         id="path6920-4"
         sodipodi:nodetypes="cc"
         transform="translate(26.579806,-14.949854)" /><path
         style="fill:none;stroke:#000000;stroke-width:3.60821106;stroke-linecap:round;stroke-linejoin:round;stroke-dasharray:none;paint-order:stroke fill markers"
         d="m 144.07056,57.26989 c -1.62195,2.776318 -1.83221,4.083479 -1.87829,7.710067"
         id="path6920-5"
         sodipodi:nodetypes="cc"
         transform="translate(26.579806,-14.949854)" /><path
         style="opacity:1;fill:none;stroke:#000000;stroke-width:3.60821106;stroke-linecap:round;stroke-linejoin:round;stroke-dasharray:none;paint-order:stroke fill markers"
         d="m 91.149067,122.62883 c -5.453698,10.39251 -1.040733,20.48971 7.201887,20.80039 8.242616,0.31068 12.764016,-6.18659 10.549096,-18.78598"
         id="path2407"
         sodipodi:nodetypes="czc"
         transform="translate(26.579806,-14.949854)" /><path
         style="opacity:1;fill:none;stroke:#000000;stroke-width:3.60821106;stroke-linecap:round;stroke-linejoin:round;stroke-dasharray:none;paint-order:stroke fill markers"
         d="m 95.069397,167.40954 c -5.454103,9.75259 -9.129475,14.991 -13.47391,22.27455 -3.270496,4.44917 -2.643345,5.98464 1.896514,8.04231 12.46694,5.59063 36.141629,3.47869 43.519689,0.40483"
         id="path2409"
         sodipodi:nodetypes="cccc"
         transform="translate(26.579806,-14.949854)" /><path
         style="opacity:1;fill:none;stroke:#000000;stroke-width:3.60821106;stroke-linecap:round;stroke-linejoin:round;stroke-dasharray:none;paint-order:stroke fill markers"
         d="M 88.495362,199.54476 49.356294,267.48668"
         id="path3137"
         sodipodi:nodetypes="cc"
         transform="translate(26.579806,-14.949854)" /><path
         style="opacity:1;fill:none;stroke:#000000;stroke-width:3.60821106;stroke-linecap:round;stroke-linejoin:round;stroke-dasharray:none;paint-order:stroke fill markers"
         d="m 129.44844,41.793423 c -3.68547,6.068033 -3.80479,13.762782 3.30878,22.553616 7.11357,8.790834 11.93035,21.493859 1.53167,27.80919 -5.72171,3.474912 -12.62588,3.90487 -20.98115,1.316567 M 96.925034,85.747768 C 85.105248,78.101951 76.863087,66.68789 78.134306,52.450191 80.546876,25.429317 97.732992,27.945993 105.66691,37.851533 c 7.93391,9.905539 8.17661,25.541155 7.96833,32.532425"
         id="path3930"
         sodipodi:nodetypes="czsccszc"
         transform="translate(26.579806,-14.949854)" /><path
         style="opacity:1;fill:none;stroke:#000000;stroke-width:3.60821106;stroke-linecap:round;stroke-linejoin:round;stroke-dasharray:none;paint-order:stroke fill markers"
         d="M 108.39975,84.06154 C 96.509457,76.96063 86.497011,102.118 96.274834,105.94088 106.05266,109.76377 120.29004,91.162451 108.39975,84.06154 Z"
         id="path6110"
         sodipodi:nodetypes="zzz"
         transform="translate(26.579806,-14.949854)" /><path
         style="opacity:1;fill:none;stroke:#000000;stroke-width:3.60821;stroke-linecap:round;stroke-linejoin:round;stroke-dasharray:none;paint-order:stroke fill markers"
         d="m 77.315725,121.059 c -9.024878,11.43823 -17.505106,21.72665 -21.06925,21.63668 -2.789855,-0.0704 -2.567591,-6.49978 2.76333,-23.71407"
         id="path6838"
         sodipodi:nodetypes="csc"
         transform="translate(26.579806,-14.949854)" /><path
         style="opacity:1;fill:none;stroke:#000000;stroke-width:3.60821;stroke-linecap:round;stroke-linejoin:round;stroke-dasharray:none;paint-order:stroke fill markers"
         d="m 119.97246,125.89975 c 5.42055,12.57922 14.20503,24.41534 21.54372,22.43781 7.33869,-1.97753 5.81783,-14.07328 4.11946,-19.52551"
         id="path6840"
         sodipodi:nodetypes="czc"
         transform="translate(26.579806,-14.949854)" /><path
         style="opacity:1;fill:none;stroke:#000000;stroke-width:3.60821106;stroke-linecap:round;stroke-linejoin:round;stroke-dasharray:none;paint-order:stroke fill markers"
         d="m 59.463422,117.77032 c 5.251735,4.03374 14.277409,-7.44524 9.07311,-10.87271 -5.204299,-3.42747 -14.324845,6.83897 -9.07311,10.87271 z"
         id="path6842"
         sodipodi:nodetypes="zzz"
         transform="translate(26.579806,-14.949854)" /><path
         style="fill:none;stroke:#000000;stroke-width:3.60821106;stroke-linecap:round;stroke-linejoin:round;stroke-dasharray:none;paint-order:stroke fill markers"
         d="m 143.83565,126.92046 c 5.25173,4.03374 14.0682,-7.65445 8.8639,-11.08192 -5.2043,-3.42747 -14.11564,7.04818 -8.8639,11.08192 z"
         id="path6842-9"
         sodipodi:nodetypes="zzz"
         transform="translate(26.579806,-14.949854)" /><path
         style="opacity:1;fill:none;stroke:#000000;stroke-width:3.60821106;stroke-linecap:round;stroke-linejoin:round;stroke-dasharray:none;paint-order:stroke fill markers"
         d="m 137.11804,48.983667 c -1.25791,2.433993 -1.79012,5.22132 -1.40001,8.25638"
         id="path6920"
         sodipodi:nodetypes="cc"
         transform="translate(26.579806,-14.949854)" /><path
         style="opacity:1;fill:none;stroke:#000000;stroke-width:3.60821106;stroke-linecap:round;stroke-linejoin:round;stroke-dasharray:none;paint-order:stroke fill markers"
         d="m 159.84581,96.670673 c 5.69958,3.933617 8.95385,11.822457 5.61831,20.259957"
         id="path6957"
         sodipodi:nodetypes="cc"
         transform="translate(26.579806,-14.949854)" /><path
         style="fill:none;stroke:#000000;stroke-width:3.60821106;stroke-linecap:round;stroke-linejoin:round;stroke-dasharray:none;paint-order:stroke fill markers"
         d="m 166.92787,90.967241 c 8.08311,6.487393 9.80511,18.121769 6.46957,26.559269"
         id="path6957-3"
         sodipodi:nodetypes="cc"
         transform="translate(26.579806,-14.949854)" /><path
         style="opacity:1;fill:none;stroke:#000000;stroke-width:3.60821106;stroke-linecap:round;stroke-linejoin:round;stroke-dasharray:none;paint-order:stroke fill markers"
         d="m 39.307604,142.12788 c 4.976284,12.56766 13.950782,16.13935 24.345995,16.51442"
         id="path6981"
         sodipodi:nodetypes="cc"
         transform="translate(26.579806,-14.949854)" /><path
         style="opacity:1;fill:none;stroke:#000000;stroke-width:3.60821106;stroke-linecap:round;stroke-linejoin:round;stroke-dasharray:none;paint-order:stroke fill markers"
         d="m 34.540556,153.19424 c 3.982692,8.11899 13.784851,13.51497 20.940961,13.79039"
         id="path6983"
         sodipodi:nodetypes="cc"
         transform="translate(26.579806,-14.949854)" /><path
         style="opacity:1;fill:none;stroke:#000000;stroke-width:3.60821106;stroke-linecap:round;stroke-linejoin:round;stroke-dasharray:none;paint-order:stroke fill markers"
         d="m 119.53557,126.53976 c 26.5852,23.26264 29.75038,35.66468 34.05593,56.64162 4.67914,22.79712 7.40538,69.35545 7.40538,69.35545"
         id="path1583"
         sodipodi:nodetypes="csc" /></g></g></svg>
